<svg id="Capa_1" enable-background="new 0 0 512 512" height="512" viewBox="0 0 512 512" width="512" xmlns="http://www.w3.org/2000/svg"><g><g><path d="m328.468 354.275h-63.244l-41.572 47.659v76.051l149.607 26.515h59.826v-11.876c-.001-65.177-43.825-121.106-104.617-138.349z" fill="#ffdbe0"/><path d="m289.299 348.839c-16.954 0-33.23 2.943-48.348 8.36l-17.054 18.792h-18.569c-36.405 26.283-59.811 68.977-59.811 116.633v11.876h47.931l30.204-26.515v-68.457h26.775c18.736-26.366 46.131-46.195 78.041-55.253-12.457-3.535-25.594-5.436-39.169-5.436z" fill="#ffb5c0"/></g><g><path d="m326.437 382.943c7.627 38.342 11.184 73.145 11.194 109.524h35.627c-.01-37.841-3.56-72.607-10.533-109.524z" fill="#676fb2"/><path d="m367.12 492.467c-51.498-2.38-97.27-34.536-116.676-82.939h-.017c-6.519-16.26-9.897-34.173-9.477-52.329-12.806 4.589-24.78 10.963-35.623 18.792-7.864 39.533-11.869 76.267-11.88 116.475v12.034h179.811v-12.033z" fill="#bd7669"/></g><g><g><g fill="#ffb5c0"><circle cx="116.95" cy="179.851" r="42.849"/><circle cx="461.651" cy="179.851" r="42.849"/></g><g><path d="m317.866 9.857h-32.922c-21.888 0-42.561 10.059-56.068 27.282l-111.926 142.712 111.926 142.713c13.507 17.223 34.18 27.272 56.068 27.272h32.922c47.927-8.01 89.112-35.758 114.97-74.572v-190.794c-25.87-38.837-67.074-66.624-114.97-74.613z" fill="#ffdbe0"/><path d="m174.083 179.851c0-85.454 62.195-156.383 143.783-169.995-9.293-1.55-18.834-2.356-28.567-2.356-59.918 0-112.687 30.596-143.57 76.998v190.717c30.883 46.402 83.653 76.984 143.57 76.984 9.733 0 19.274-.812 28.567-2.363-81.588-13.611-143.783-84.533-143.783-169.985z" fill="#ffb5c0"/></g></g><g fill="#ffb5c0"><path d="m214.3 176.731c-12.407 0-22.5 10.094-22.5 22.5v12c0 12.406 10.093 22.5 22.5 22.5s22.5-10.094 22.5-22.5v-12c0-12.406-10.093-22.5-22.5-22.5z"/><path d="m364.3 176.731c-12.407 0-22.5 10.094-22.5 22.5v12c0 12.406 10.093 22.5 22.5 22.5s22.5-10.094 22.5-22.5v-12c0-12.406-10.093-22.5-22.5-22.5z"/></g><g><path d="m330.843 216.037c-12.904-13.512-32.493-15.212-41.561-2.513-9.068-12.7-28.657-10.999-41.561 2.513-13.682 14.348-24.354 27.758-20.192 34.962 4.158 7.208 21.104 4.665 40.374-.006 9.576-2.332 17.227-7.92 21.379-14.763 4.152 6.842 11.803 12.431 21.379 14.763 19.269 4.671 36.216 7.213 40.374.006 4.161-7.205-6.51-20.614-20.192-34.962z" fill="#ff8f71"/><path d="m421.505 351.925c42.043-37.273 63.705-96.169 49.023-156.362l-14.195-58.209c-4.75-18.693-12.656-36.598-23.497-52.884-13.866 10.666-21.882 26.885-21.882 44.341 0 13.822 5.084 27.047 14.314 37.305.463 4.556.725 9.146.725 13.761 0 30.181-9.633 58.783-27.857 82.715-17.584 23.091-42.429 40.451-71.085 48.689-8.627 2.481-17.595-1.939-21.168-10.173-3.736-8.608-9.779-14.202-16.601-14.202s-12.866 5.594-16.601 14.203c-3.571 8.23-12.533 12.655-21.155 10.177-10.391-2.986-20.441-7.23-29.905-12.631v71.225h157.361z" fill="#ff8f71"/><path d="m346.087 351.925c-48.957 0-93.137-20.45-124.467-53.271-15.994-9.126-30.026-21.4-41.192-36.062-18.224-23.932-27.857-52.534-27.857-82.715 0-4.643.259-9.225.714-13.749 9.237-10.259 14.325-23.491 14.325-37.317 0-17.456-8.015-33.647-21.881-44.313-10.829 16.269-18.743 34.136-23.497 52.856l.019-.001-.019.001-14.198 58.209c-24.346 99.817 51.247 196.065 153.991 196.065h54.513c40.78 0 77.294-15.173 104.968-39.703z" fill="#ff6f4d"/></g><g fill="#ff8f71"><path d="m384.498 137.234c2.679 8.989-2.436 18.447-11.425 21.126l-41.485 12.363c-8.991 2.681-18.448-2.436-21.126-11.425-2.679-8.989 2.436-18.447 11.425-21.126l41.485-12.363c8.981-2.678 18.446 2.43 21.126 11.425z"/><path d="m194.066 137.234c-2.679 8.989 2.436 18.447 11.425 21.126l41.485 12.363c8.991 2.681 18.448-2.436 21.126-11.425 2.679-8.989-2.436-18.447-11.425-21.126l-41.485-12.363c-8.981-2.678-18.446 2.43-21.126 11.425z"/></g></g><g><g><path d="m42.252 475.003c-.017.084-.03.169-.039.254-.881 8.011 1.871 15.863 7.552 21.544 10.291 10.291 27.066 10.261 37.393-.066 5.701-5.701 8.456-13.733 7.602-21.74l-40.007-63.61z" fill="#bd7669"/><path d="m82.473 411.384-13.99-10-13.728 10c1.857 26.555 16.877 50.501 40.007 63.61z" fill="#ce857a"/></g><g><path d="m122.323 361.781-20.86-25.144c-3.8-4.58-9.442-7.23-15.393-7.23h-22.588l-40.982 40.982 40.982 40.995h43.982c12.15 0 22-9.862 22-22.013v-7.797c.001-7.228-2.526-14.23-7.141-19.793z" fill="#ffce71"/><path d="m63.482 329.407h-35.982c-11.046 0-20 8.954-20 20v41.965c0 11.046 8.954 20.013 20 20.013h35.982c-22.634-22.635-22.633-59.344 0-81.978z" fill="#ffb357"/></g></g><g><path d="m269.677 258.279c7.564-1.841 14.35-5.465 19.605-10.346 5.256 4.881 12.043 8.505 19.612 10.348 11.885 2.881 21.929 4.747 29.905 4.747 8.963 0 15.314-2.356 18.729-8.278 6.47-11.198-3.337-25.096-21.258-43.89-12.849-13.455-33.074-18.207-46.989-7.919-13.946-10.311-34.14-5.533-46.988 7.919-17.921 18.794-27.728 32.691-21.261 43.886 6.46 11.194 23.399 9.653 48.645 3.533zm-16.532-37.063c8.531-8.933 23.279-12.794 30.033-3.333 2.988 4.186 9.22 4.185 12.208 0 6.701-9.385 21.338-5.771 30.033 3.333 17.307 18.151 19.061 24.25 19.044 25.988-1.497.884-7.659 2.408-32.028-3.499-7.232-1.761-13.491-6.01-16.741-11.366-2.916-4.805-9.906-4.808-12.824 0-3.25 5.356-9.508 9.605-16.734 11.364-24.381 5.909-30.539 4.383-32.035 3.501-.017-1.739 1.739-7.84 19.044-25.988z"/><path d="m391.686 135.092c-3.863-12.963-17.483-20.335-30.455-16.471l-41.485 12.363c-12.937 3.855-20.326 17.518-16.471 30.455 3.848 12.916 17.435 20.355 30.456 16.471l41.484-12.363c12.937-3.856 20.326-17.518 16.471-30.455zm-20.754 16.08-41.485 12.363c-5.017 1.499-10.298-1.352-11.796-6.379-1.493-5.012 1.369-10.304 6.379-11.797l41.485-12.363c5.016-1.497 10.298 1.355 11.796 6.379 1.493 5.012-1.369 10.304-6.379 11.797z"/><path d="m275.288 161.44c3.865-12.965-3.499-26.592-16.47-30.456l-41.484-12.363c-12.965-3.862-26.59 3.497-30.456 16.471-3.865 12.968 3.502 26.592 16.47 30.455l41.484 12.363c13.022 3.882 26.609-3.554 30.456-16.47zm-74.035-22.064c1.494-5.012 6.761-7.878 11.796-6.38l41.485 12.363c5.021 1.497 7.877 6.771 6.378 11.797-1.495 5.02-6.769 7.878-11.795 6.379l-41.485-12.363c-5.021-1.497-7.876-6.772-6.379-11.796z"/><path d="m214.3 218.731c4.142 0 7.5-3.357 7.5-7.5v-12c0-4.143-3.358-7.5-7.5-7.5s-7.5 3.357-7.5 7.5v12c0 4.143 3.358 7.5 7.5 7.5z"/><path d="m371.801 211.231v-12c0-4.143-3.357-7.5-7.5-7.5s-7.5 3.357-7.5 7.5v12c0 4.143 3.357 7.5 7.5 7.5s7.5-3.357 7.5-7.5z"/><path d="m128.095 356.992-20.86-25.145c-5.242-6.317-12.956-9.941-21.165-9.941h-58.57c-15.164 0-27.5 12.337-27.5 27.5v41.965c0 15.171 12.336 27.513 27.5 27.513h18.137l-10.874 55.555c-2.206 20.047 13.397 37.561 33.636 37.561h.062c22.404-.041 37-21.157 33.664-38.429l-10.565-54.687h15.905c16.266 0 29.5-13.239 29.5-29.513v-7.797c0-8.958-3.15-17.688-8.87-24.582zm-59.66 140.008c-.012 0-.023 0-.035 0-12.02 0-20.656-11.016-18.526-21.883 1.575-8.03 10.712-54.517 11.049-56.233h15.36l10.785 55.828c2.178 11.272-6.602 22.267-18.633 22.288zm53.53-107.629c0 8.002-6.505 14.513-14.5 14.513h-79.965c-6.893 0-12.5-5.613-12.5-12.513v-41.965c0-6.893 5.607-12.5 12.5-12.5h58.57c3.731 0 7.238 1.647 9.621 4.52l20.86 25.145c3.491 4.207 5.414 9.536 5.414 15.004z"/><path d="m512 179.852c0-27.371-22.002-50.127-50.032-50.317-7.87-27-22.568-53.327-43.968-75.267-2.893-2.965-7.64-3.024-10.606-.132-2.965 2.893-3.023 7.641-.132 10.606 5.649 5.791 10.829 11.983 15.542 18.491-24.022 23.13-25.761 60.687-4.781 85.968 5.294 62.436-34.948 118.169-93.044 134.872-4.964 1.431-10.1-1.076-12.216-5.951-5.086-11.72-13.864-18.717-23.481-18.717-9.619 0-18.397 6.997-23.481 18.718-2.116 4.874-7.247 7.375-12.204 5.954-58.794-16.896-98.253-72.999-93.065-134.865 20.805-25.064 19.475-62.69-4.86-86.033 30.295-41.877 79.437-68.179 133.627-68.179 35.694 0 69.062 11.422 96.252 31.029 3.36 2.423 8.047 1.665 10.47-1.696 2.423-3.359 1.663-8.047-1.696-10.47-29.856-21.531-66.331-33.863-105.026-33.863-80.331 0-150.485 52.979-172.701 129.534-27.966.208-49.997 22.911-49.997 50.318 0 20.038 11.66 37.795 29.556 45.866-3.092 66.309 33.603 126.479 90.922 155.541-15.162 13.941-27.457 30.904-35.872 49.65-1.696 3.778-.008 8.217 3.771 9.913 3.763 1.691 8.211.023 9.914-3.771 7.014-15.624 17.023-29.875 29.299-41.872-9.254 55.074-8.15 99.413-8.243 101.821h-32.931v-4.376c0-9.636 1.02-19.267 3.033-28.624.871-4.05-1.706-8.038-5.755-8.909-4.054-.872-8.039 1.706-8.91 5.755-2.235 10.393-3.368 21.084-3.368 31.778v11.876c0 4.143 3.358 7.5 7.5 7.5h287.567c4.143 0 7.5-3.357 7.5-7.5v-11.876c0-42.755-17.736-82.719-49.032-111.387 57.391-29.111 93.987-89.325 90.88-155.51 17.904-8.069 29.568-25.826 29.568-45.875zm-414.297 29.669c-9.895-6.39-16.102-17.422-16.102-29.67 0-17.617 13.058-32.876 31.097-35.064l-11.951 48.998c-1.27 5.207-2.278 10.461-3.044 15.736zm103.245 287.479c.205-4.933-1.425-46.64 9.22-106.159 9.111 2.997 18.568 5.225 28.295 6.61 1.389 5.033 3.069 10.015 5.015 14.867 17.093 42.637 54.64 74.834 100.586 84.682zm53.643-98.046c2.465.109 4.942.174 7.433.174 0 0 58.037-.037 59.791-.092 4.745 27.036 7.355 52.293 8.086 78.257-32.481-12.079-59.21-37.404-72.501-70.556-1.025-2.558-1.953-5.16-2.809-7.783zm90.427 82.912c-.535-28.007-3.169-55.03-8.182-83.977 6.899-.843 13.668-2.109 20.282-3.772 5.421 31.195 8.185 60.409 8.585 90.746-7.034-.427-13.951-1.427-20.685-2.997zm80.566 10.758v4.376h-44.825c-.151-3.693 1.379-47.479-9.173-107.24 1.639-.576 3.268-1.174 4.883-1.8 31.267 26.053 49.115 63.96 49.115 104.664zm-109.047-108.496h-54.513c-96.918 0-170.129-90.749-146.705-186.788 15.711-64.413 14.022-57.533 14.155-58.023 4.158-15.314 8.945-28.276 17.8-43.294 17.029 18.362 17.06 46.624.436 65.087-1.067 1.186-1.729 2.681-1.889 4.268-7.124 70.837 37.866 134.214 103.631 153.115 12.121 3.483 25.047-2.738 30.108-14.4 2.592-5.976 6.317-9.688 9.721-9.688s7.128 3.712 9.721 9.688c5.07 11.687 18.02 17.875 30.121 14.396 66.09-19.001 110.758-82.726 103.605-153.131-.161-1.584-.822-3.076-1.887-4.259-16.56-18.402-16.607-46.642.38-65.035 7.938 13.421 13.974 27.923 17.824 43.068 0 0 14.137 57.97 14.195 58.207 23.472 96.266-49.908 186.789-146.703 186.789zm164.337-174.589c-.77-5.281-1.792-10.555-3.061-15.764-.098-.399-7.973-32.691-11.957-49.028 17.659 2.034 31.144 17.203 31.144 35.105 0 12.263-6.216 23.3-16.126 29.687z"/></g></g></svg>